<svg xmlns="http://www.w3.org/2000/svg" width="560" height="160" viewBox="0 0 560 160" role="img" aria-labelledby="title desc">
  <title id="title">Ledger 02 — AI Usage Chronicle</title>
  <desc id="desc">176B recorded tokens; Jan 8 – Aug 17, 2026; 164B cached context · 93.5% of traffic. Weekly tokens are stacked by tool.</desc>
  <style>
    text { font-family: ui-sans-serif, -apple-system, BlinkMacSystemFont, "Segoe UI", sans-serif; fill: #0f172a; }
    .identity { font-family: ui-monospace, SFMono-Regular, Menlo, Consolas, monospace; font-size: 11px; font-weight: 700; letter-spacing: .11em; }
    .total { font-size: 24px; font-weight: 720; letter-spacing: -.02em; }
    .meta { font-size: 11px; fill: #64748b; }
    .chart-title { font-size: 10px; font-weight: 600; fill: #64748b; }
    .legend { font-size: 10px; fill: #64748b; }
  </style>
  <rect x=".5" y=".5" width="559" height="159" rx="12" fill="#ffffff" stroke="#dbe3ec"/>
  <text x="20" y="26" class="identity">LEDGER 02 / AI USAGE CHRONICLE</text>
  <text x="20" y="59" class="total">176B recorded tokens</text>
  <text x="20" y="82" class="meta">Jan 8 – Aug 17, 2026</text>
  <text x="20" y="102" class="meta">164B cached context · 93.5% of traffic</text>
  <text x="310" y="26" class="chart-title">Weekly tokens · stacked by tool</text>
  <line x1="310" y1="126" x2="540" y2="126" stroke="#e2e8f0"/><circle cx="310" cy="126" r="3" fill="#D9684B" aria-hidden="true"/><g aria-label="Weekly token volume, stacked by tool"><rect x="310.65" y="125.90" width="5.89" height="0.10" fill="#2563eb"/><rect x="317.83" y="124.78" width="5.89" height="1.22" fill="#2563eb"/><rect x="325.02" y="124.27" width="5.89" height="1.73" fill="#2563eb"/><rect x="332.21" y="124.11" width="5.89" height="1.89" fill="#2563eb"/><rect x="339.40" y="122.38" width="5.89" height="3.62" fill="#2563eb"/><rect x="346.58" y="120.20" width="5.89" height="5.80" fill="#2563eb"/><rect x="353.77" y="123.43" width="5.89" height="2.57" fill="#2563eb"/><rect x="360.96" y="123.81" width="5.89" height="2.19" fill="#2563eb"/><rect x="368.15" y="123.65" width="5.89" height="2.35" fill="#2563eb"/><rect x="375.33" y="119.84" width="5.89" height="6.16" fill="#2563eb"/><rect x="382.52" y="121.53" width="5.89" height="4.47" fill="#2563eb"/><rect x="389.71" y="123.82" width="5.89" height="2.18" fill="#2563eb"/><rect x="396.90" y="125.16" width="5.89" height="0.84" fill="#2563eb"/><rect x="396.90" y="123.74" width="5.89" height="1.43" fill="#c2410c"/><rect x="404.08" y="125.60" width="5.89" height="0.40" fill="#2563eb"/><rect x="404.08" y="125.41" width="5.89" height="0.19" fill="#c2410c"/><rect x="411.27" y="125.68" width="5.89" height="0.32" fill="#2563eb"/><rect x="411.27" y="122.19" width="5.89" height="3.49" fill="#c2410c"/><rect x="418.46" y="123.99" width="5.89" height="2.01" fill="#2563eb"/><rect x="418.46" y="118.37" width="5.89" height="5.62" fill="#c2410c"/><rect x="425.65" y="118.41" width="5.89" height="7.59" fill="#2563eb"/><rect x="425.65" y="115.47" width="5.89" height="2.94" fill="#c2410c"/><rect x="432.83" y="94.23" width="5.89" height="31.77" fill="#2563eb"/><rect x="440.02" y="110.26" width="5.89" height="15.74" fill="#2563eb"/><rect x="440.02" y="110.22" width="5.89" height="0.04" fill="#c2410c"/><rect x="440.02" y="110.14" width="5.89" height="0.08" fill="#0d9488"/><rect x="447.21" y="119.26" width="5.89" height="6.74" fill="#2563eb"/><rect x="447.21" y="119.01" width="5.89" height="0.25" fill="#0d9488"/><rect x="454.40" y="120.51" width="5.89" height="5.49" fill="#2563eb"/><rect x="454.40" y="120.33" width="5.89" height="0.18" fill="#0d9488"/><rect x="461.58" y="121.95" width="5.89" height="4.05" fill="#2563eb"/><rect x="461.58" y="121.80" width="5.89" height="0.15" fill="#0d9488"/><rect x="468.77" y="123.08" width="5.89" height="2.92" fill="#2563eb"/><rect x="468.77" y="122.42" width="5.89" height="0.66" fill="#0d9488"/><rect x="475.96" y="123.47" width="5.89" height="2.53" fill="#2563eb"/><rect x="475.96" y="123.47" width="5.89" height="0.00" fill="#c2410c"/><rect x="475.96" y="122.57" width="5.89" height="0.90" fill="#0d9488"/><rect x="483.15" y="121.09" width="5.89" height="4.91" fill="#2563eb"/><rect x="483.15" y="119.86" width="5.89" height="1.23" fill="#0d9488"/><rect x="490.33" y="119.39" width="5.89" height="6.61" fill="#2563eb"/><rect x="490.33" y="118.57" width="5.89" height="0.82" fill="#0d9488"/><rect x="497.52" y="103.26" width="5.89" height="22.74" fill="#2563eb"/><rect x="497.52" y="102.52" width="5.89" height="0.74" fill="#c2410c"/><rect x="497.52" y="101.31" width="5.89" height="1.21" fill="#0d9488"/><rect x="497.52" y="101.31" width="5.89" height="0.01" fill="#7c3aed"/><rect x="504.71" y="70.68" width="5.89" height="55.32" fill="#2563eb"/><rect x="504.71" y="66.64" width="5.89" height="4.04" fill="#c2410c"/><rect x="504.71" y="64.81" width="5.89" height="1.84" fill="#0d9488"/><rect x="511.90" y="89.53" width="5.89" height="36.47" fill="#2563eb"/><rect x="511.90" y="83.57" width="5.89" height="5.95" fill="#c2410c"/><rect x="511.90" y="81.92" width="5.89" height="1.65" fill="#0d9488"/><rect x="511.90" y="79.11" width="5.89" height="2.81" fill="#7c3aed"/><rect x="519.08" y="85.75" width="5.89" height="40.25" fill="#2563eb"/><rect x="519.08" y="83.83" width="5.89" height="1.91" fill="#c2410c"/><rect x="519.08" y="82.68" width="5.89" height="1.15" fill="#0d9488"/><rect x="519.08" y="71.22" width="5.89" height="11.46" fill="#7c3aed"/><rect x="526.27" y="48.13" width="5.89" height="77.87" fill="#2563eb"/><rect x="526.27" y="46.25" width="5.89" height="1.88" fill="#c2410c"/><rect x="526.27" y="44.70" width="5.89" height="1.55" fill="#0d9488"/><rect x="526.27" y="40.00" width="5.89" height="4.70" fill="#7c3aed"/><rect x="533.46" y="123.90" width="5.89" height="2.10" fill="#2563eb"/><rect x="533.46" y="123.67" width="5.89" height="0.23" fill="#c2410c"/><rect x="533.46" y="123.64" width="5.89" height="0.03" fill="#7c3aed"/></g>
  <circle cx="20" cy="137" r="4" fill="#2563eb"/><text x="28" y="141" class="legend">Codex</text><circle cx="83" cy="137" r="4" fill="#c2410c"/><text x="91" y="141" class="legend">Claude Code</text><circle cx="178.4" cy="137" r="4" fill="#0d9488"/><text x="186.4" y="141" class="legend">Cursor</text><circle cx="246.8" cy="137" r="4" fill="#7c3aed"/><text x="254.8" y="141" class="legend">One API</text>
</svg>
