<svg xmlns="http://www.w3.org/2000/svg" width="560" height="160" viewBox="0 0 560 160" role="img" aria-labelledby="title desc">
  <title id="title">Ledger 02 — AI Usage Chronicle</title>
  <desc id="desc">78.8B recorded tokens; Jan 8 – Aug 3, 2026; 71.8B cached context · 91.1% of traffic. Weekly tokens are stacked by tool.</desc>
  <style>
    text { font-family: ui-sans-serif, -apple-system, BlinkMacSystemFont, "Segoe UI", sans-serif; fill: #0f172a; }
    .identity { font-family: ui-monospace, SFMono-Regular, Menlo, Consolas, monospace; font-size: 11px; font-weight: 700; letter-spacing: .11em; }
    .total { font-size: 24px; font-weight: 720; letter-spacing: -.02em; }
    .meta { font-size: 11px; fill: #64748b; }
    .chart-title { font-size: 10px; font-weight: 600; fill: #64748b; }
    .legend { font-size: 10px; fill: #64748b; }
  </style>
  <rect x=".5" y=".5" width="559" height="159" rx="12" fill="#ffffff" stroke="#dbe3ec"/>
  <text x="20" y="26" class="identity">LEDGER 02 / AI USAGE CHRONICLE</text>
  <text x="20" y="59" class="total">78.8B recorded tokens</text>
  <text x="20" y="82" class="meta">Jan 8 – Aug 3, 2026</text>
  <text x="20" y="102" class="meta">71.8B cached context · 91.1% of traffic</text>
  <text x="310" y="26" class="chart-title">Weekly tokens · stacked by tool</text>
  <line x1="310" y1="126" x2="540" y2="126" stroke="#e2e8f0"/><circle cx="310" cy="126" r="3" fill="#D9684B" aria-hidden="true"/><g aria-label="Weekly token volume, stacked by tool"><rect x="310.69" y="125.73" width="6.29" height="0.27" fill="#2563eb"/><rect x="318.36" y="122.71" width="6.29" height="3.29" fill="#2563eb"/><rect x="326.02" y="121.33" width="6.29" height="4.67" fill="#2563eb"/><rect x="333.69" y="120.88" width="6.29" height="5.12" fill="#2563eb"/><rect x="341.36" y="116.20" width="6.29" height="9.80" fill="#2563eb"/><rect x="349.02" y="110.30" width="6.29" height="15.70" fill="#2563eb"/><rect x="356.69" y="119.05" width="6.29" height="6.95" fill="#2563eb"/><rect x="364.36" y="120.08" width="6.29" height="5.92" fill="#2563eb"/><rect x="372.02" y="119.64" width="6.29" height="6.36" fill="#2563eb"/><rect x="379.69" y="109.33" width="6.29" height="16.67" fill="#2563eb"/><rect x="387.36" y="113.90" width="6.29" height="12.10" fill="#2563eb"/><rect x="395.02" y="120.11" width="6.29" height="5.89" fill="#2563eb"/><rect x="402.69" y="123.74" width="6.29" height="2.26" fill="#2563eb"/><rect x="402.69" y="119.87" width="6.29" height="3.86" fill="#c2410c"/><rect x="410.36" y="124.93" width="6.29" height="1.07" fill="#2563eb"/><rect x="410.36" y="124.40" width="6.29" height="0.53" fill="#c2410c"/><rect x="418.02" y="125.13" width="6.29" height="0.87" fill="#2563eb"/><rect x="418.02" y="115.68" width="6.29" height="9.45" fill="#c2410c"/><rect x="425.69" y="120.56" width="6.29" height="5.44" fill="#2563eb"/><rect x="425.69" y="105.34" width="6.29" height="15.22" fill="#c2410c"/><rect x="433.36" y="105.45" width="6.29" height="20.55" fill="#2563eb"/><rect x="433.36" y="97.50" width="6.29" height="7.95" fill="#c2410c"/><rect x="441.02" y="40.00" width="6.29" height="86.00" fill="#2563eb"/><rect x="448.69" y="83.39" width="6.29" height="42.61" fill="#2563eb"/><rect x="448.69" y="83.28" width="6.29" height="0.11" fill="#c2410c"/><rect x="448.69" y="83.08" width="6.29" height="0.21" fill="#0d9488"/><rect x="456.36" y="107.75" width="6.29" height="18.25" fill="#2563eb"/><rect x="456.36" y="107.07" width="6.29" height="0.69" fill="#0d9488"/><rect x="464.02" y="111.15" width="6.29" height="14.85" fill="#2563eb"/><rect x="464.02" y="110.66" width="6.29" height="0.49" fill="#0d9488"/><rect x="471.69" y="115.03" width="6.29" height="10.97" fill="#2563eb"/><rect x="471.69" y="114.62" width="6.29" height="0.41" fill="#0d9488"/><rect x="479.36" y="118.09" width="6.29" height="7.91" fill="#2563eb"/><rect x="479.36" y="116.31" width="6.29" height="1.79" fill="#0d9488"/><rect x="487.02" y="119.16" width="6.29" height="6.84" fill="#2563eb"/><rect x="487.02" y="119.16" width="6.29" height="0.00" fill="#c2410c"/><rect x="487.02" y="116.71" width="6.29" height="2.45" fill="#0d9488"/><rect x="494.69" y="112.71" width="6.29" height="13.29" fill="#2563eb"/><rect x="494.69" y="109.38" width="6.29" height="3.33" fill="#0d9488"/><rect x="502.36" y="108.11" width="6.29" height="17.89" fill="#2563eb"/><rect x="502.36" y="105.88" width="6.29" height="2.23" fill="#0d9488"/><rect x="510.02" y="111.80" width="6.29" height="14.20" fill="#2563eb"/><rect x="510.02" y="109.80" width="6.29" height="2.00" fill="#c2410c"/><rect x="510.02" y="106.52" width="6.29" height="3.28" fill="#0d9488"/><rect x="510.02" y="106.51" width="6.29" height="0.02" fill="#7c3aed"/><rect x="517.69" y="99.39" width="6.29" height="26.61" fill="#2563eb"/><rect x="517.69" y="88.46" width="6.29" height="10.93" fill="#c2410c"/><rect x="517.69" y="83.49" width="6.29" height="4.97" fill="#0d9488"/><rect x="525.36" y="99.18" width="6.29" height="26.82" fill="#2563eb"/><rect x="525.36" y="83.07" width="6.29" height="16.12" fill="#c2410c"/><rect x="525.36" y="78.59" width="6.29" height="4.47" fill="#0d9488"/><rect x="525.36" y="70.99" width="6.29" height="7.60" fill="#7c3aed"/><rect x="533.02" y="123.37" width="6.29" height="2.63" fill="#2563eb"/><rect x="533.02" y="123.08" width="6.29" height="0.30" fill="#c2410c"/><rect x="533.02" y="122.70" width="6.29" height="0.38" fill="#0d9488"/><rect x="533.02" y="122.68" width="6.29" height="0.02" fill="#7c3aed"/></g>
  <circle cx="20" cy="137" r="4" fill="#2563eb"/><text x="28" y="141" class="legend">Codex</text><circle cx="89" cy="137" r="4" fill="#c2410c"/><text x="97" y="141" class="legend">Claude Code</text><circle cx="191" cy="137" r="4" fill="#0d9488"/><text x="199" y="141" class="legend">Cursor</text><circle cx="262" cy="137" r="4" fill="#7c3aed"/><text x="270" y="141" class="legend">One API</text>
</svg>
